<?xml version="1.0" standalone="no"?>
<!DOCTYPE svg PUBLIC "-//W3C//DTD SVG 1.1//EN" "http://www.w3.org/Graphics/SVG/1.1/DTD/svg11.dtd" >
<svg xmlns="http://www.w3.org/2000/svg" xmlns:xlink="http://www.w3.org/1999/xlink" version="1.1">
<metadata></metadata>
<defs>
<font id="caliguladodgymummyregular" horiz-adv-x="1085" >
<font-face units-per-em="2048" ascent="1638" descent="-410" />
<missing-glyph horiz-adv-x="872" />
<glyph horiz-adv-x="0" />
<glyph unicode="&#xd;" horiz-adv-x="872" />
<glyph horiz-adv-x="692" d="M18 1608l23 14l47 -10q43 -16 139 -8q35 -2 101 8l47 -8q0 -12 -13 -21l-55 -41q-31 -68 -31 -196q0 -129 -10 -177v-530l21 -344l26 -125l35 -47l25 -12l10 -54l-23 -14l-36 8q-22 18 -131 10q-53 4 -119 -8l-47 8q0 12 12 21l55 41q31 68 31 196q0 129 10 177v530 l-20 344l-27 125l-35 47l-24 12z" />
<glyph unicode=" "  horiz-adv-x="872" />
<glyph unicode="&#x09;" horiz-adv-x="872" />
<glyph unicode="&#xa0;" horiz-adv-x="872" />
<glyph unicode="&#x22;" horiz-adv-x="567" d="M37 1430q88 63 123 135q27 -80 90 -129q-12 -18 -62 -140q-45 -109 -63 -125q29 74 29 113q0 29 -13 45q-59 59 -104 101zM319 1436q88 63 123 135q27 -80 90 -129q-12 -18 -61 -139q-45 -109 -63 -125q29 74 28 112q0 29 -12 45q-59 59 -105 101z" />
<glyph unicode="#" horiz-adv-x="1742" d="M45 393l18 37q26 29 46 131q20 57 24 121l21 45q12 0 18 -12l25 -56q51 -45 65 -45q129 0 176 -10l531 -6l356 -4l96 12l35 25l10 18l41 6l11 -16l-9 -35q-12 -18 -8 -80q-2 -29 6 -73l-6 -35q-8 0 -16 10l-31 41q-57 25 -147 22q-96 -2 -195 -4l-530 4l-344 -16l-54 -35 l-57 -32l-18 -25l-56 -10zM158 877l14 32q17 17 33 117q12 47 16 107l15 41q8 2 12 -11l18 -49q49 -31 99 -31q74 2 196 4l557 23l287 -18l113 22l43 29l10 18l49 8l12 -18l-10 -39q-12 -14 -8 -82q-2 -23 6 -84l-6 -39q-20 12 -41 23l-37 47q-94 18 -154 14q-76 0 -149 -2 l-531 6l-389 -20l-59 -33l-37 -55l-14 -23l-39 -8zM217 61q4 12 19 21l65 41q49 68 84 197t57 176l142 530l75 332l7 131l-19 51l-18 12l4 58l22 14l39 -10q31 -18 117 -8q31 -4 88 8l39 -8q-4 -14 -14 -23l-58 -43q-39 -68 -71 -209q-33 -147 -39 -162l-164 -507l-107 -392 l-6 -125l78 -22l21 -12l-5 -54l-26 -14l-35 8q-16 18 -127 10q-53 4 -123 -8zM715 61q4 10 18 21l68 41q63 -6 78 57q35 129 57 176l174 697l59 264l7 131l-19 51l-18 12l4 58l22 14l39 -10q29 -18 117 -8q41 -4 88 8l39 -8q-2 -12 -14 -23l-58 -43q0 -41 -71 -209 q-49 -117 -52 -121l-145 -551l-109 -378l-4 -70l23 -47l57 -12l-4 -54l-27 -14l-34 8q-16 18 -127 10q-53 4 -123 -8z" />
<glyph unicode="&#x26;" horiz-adv-x="1867" d="M104 319q0 281 406 599l14 8q-10 18 -96 141q-59 84 -72 137l-20 92q8 86 16 115q20 66 76 115l82 63q86 33 162 33q127 0 237 -88l56 -70q12 -35 12 -75q0 -23 -4 -52q-27 -82 -117 -178q-35 -39 -164 -158l-8 -26l43 -29l64 -84l98 -84l196 -217l97 -98 q211 264 211 547l-9 12l-34 63h28l301 -12l-14 -29l-55 -8l-72 -84q-25 -29 -76 -168l-125 -237v-21l-28 -43l-64 -75q98 -94 197 -187q113 -100 200 -149l121 -41l-28 -29q-211 29 -273 29q-98 90 -252 221l-49 57q-78 -100 -223 -209q-172 -100 -369 -100q-25 0 -45 2 l-20 8l-160 27q-117 63 -121 65q-66 45 -96 103q-23 55 -23 114zM264 399q0 -55 17 -110l14 -41q39 -76 111 -122t133 -46l20 -8q61 4 123 6q72 4 123 22l47 21l37 20l63 49l84 58l76 117l-70 77l-489 463q-289 -262 -289 -506zM457 1360q0 -92 67 -205l99 -125h20 q215 168 215 340q0 49 -18 94l-35 56q-72 66 -146 65q-37 0 -79 -16l-35 -15l-62 -84q-27 -53 -26 -110z" />
<glyph unicode="'" horiz-adv-x="264" d="M37 1501q88 63 123 135q27 -80 90 -129q-12 -18 -62 -139q-45 -109 -63 -125q29 74 29 113q0 29 -13 45q-59 59 -104 100z" />
<glyph unicode="*" horiz-adv-x="956" d="M33 954l4 27q2 8 6 96q2 31 -4 88l4 35q8 0 12 -8l25 -41q76 -45 108 -45q76 0 103 -8l135 -25l-174 144l-53 51l-47 39l-39 8l6 47l49 41l61 18l23 -69q31 -57 61 -113l131 -123v64l-12 231l-39 76l-24 29l-17 8l-8 32l16 9l33 -6q43 -8 99 -5q45 0 69 5l35 -5 q-2 -8 -10 -14l-39 -24q-39 -72 -39 -111q0 -78 -6 -107l16 -180l31 37l115 152l18 10l18 45l5 45l32 -12l70 -33l-2 -29h-25l-14 -14l-35 -41q-49 -45 -59 -61q-8 -16 -19 -31l-82 -88h25l197 16l24 23l27 24l6 19l31 6l8 -17l-6 -34q-6 -39 -4 -103q2 -49 4 -74l-4 -34 q-6 0 -13 8l-22 41q-43 43 -62 43q-74 0 -102 8l-131 -2l29 -29l92 -88l75 -51l17 -2l16 8l27 -18l-4 -19l-29 -18q-10 -6 -20 -14q-25 -18 -47 -56l-27 -20q-4 6 -2 14l10 47q-25 37 -70 94l-28 7l-70 106v-12l14 -209l21 -76l22 -27l19 -8l6 -33l-16 -8l-25 4q-29 6 -92 7 q-51 0 -84 -5l-33 5q2 8 8 12l39 26q43 74 41 117q2 78 8 107v92l-8 -14l-155 -121l-45 -66l-2 -37l6 -18l-17 -29l-16 6l-14 23q-4 27 -25 39q-23 14 -35 30l-20 29q0 6 14 2l45 -12l76 76q39 37 78 69l100 80l-250 -24l-72 -19l-26 -26l-8 -17l-31 -8z" />
<glyph unicode="+" horiz-adv-x="1433" d="M53 571l8 39q15 20 9 133q2 43 -9 123l9 49q10 -2 16 -12l35 -57q113 -63 162 -64q109 0 147 -10h227l-2 115l-16 321l-57 107l-35 41l-25 10l-10 45l23 10l47 -8q55 -12 143 -6q37 -2 104 6l48 -6q0 -10 -13 -18l-55 -33q-33 -57 -33 -166t-10 -150v-268h113l288 21 l109 59l41 35l10 24l45 13l12 -25l-10 -47q-12 -45 -6 -143q-2 -45 6 -105l-6 -47q-10 0 -16 12l-35 58q-57 31 -166 30.5t-147 10.5l-238 -2v-72l20 -291l29 -104l35 -39l24 -10l11 -46l-23 -12l-39 6q-31 14 -133 8q-53 4 -123 -6l-49 6q2 10 12 19l58 35q61 102 61 164 q0 109 10 147l-2 195h-71l-320 -19l-106 -29l-39 -34l-10 -25l-45 -10z" />
<glyph unicode="," horiz-adv-x="311" d="M49 125q88 63 123 135q27 -80 90 -129q-12 -18 -61 -139q-45 -109 -64 -125q29 74 29 113q0 29 -12 45q-59 59 -105 100z" />
<glyph unicode="-" d="M66 571l28 47q1 1 21 93l-15 123l9 49q14 -8 16 -13l35 -55l33 -12q4 -14 6 -29l360 2l264 19l117 14l18 41l11 24l45 11l12 -23l-12 -49l-8 -92l-17 -119l-6 -20h-12l-35 65q-63 37 -94 37q-109 0 -148 10l-121 -2l-333 -10l-68 -64l-39 -34l-10 -25l-45 -10z" />
<glyph unicode="." horiz-adv-x="301" d="M45 125q88 63 123 135q24 -80 90 -129q-53 -80 -113 -131q-59 43 -100 125z" />
<glyph unicode="/" horiz-adv-x="735" d="M-150 -80q2 23 19 21l18 -2l37 38q20 23 39 46l189 432l317 948l23 125v41l-35 43l-4 30l26 15l23 -2q111 -8 110 -8q29 -2 45 2l2 -21l-14 -29l-24 -14l-29 -82q-39 -123 -80 -248l-238 -700l-108 -272l-45 -185l-29 -114l17 -33l14 -27l-17 -22h-45l-38 6 q-12 2 -160 -6z" />
<glyph unicode="0" horiz-adv-x="1619" d="M23 784q0 379 350 639q233 129 450 129t430 -129l68 -53l92 -100l62 -68l32 -47q90 -182 90 -358q0 -174 -90 -342q-98 -186 -213 -275l-53 -41l-35 -12l-32 -27q-63 -25 -193 -73l-328 -7l-14 7l-180 53q-186 82 -293 233l-62 88l-26 60l-6 33q-49 150 -49 290zM164 821 q0 -18 2 -39l12 -200l15 -21l12 -26q12 -47 53 -140l21 -35l26 -47l74 -80q160 -174 366 -174l21 -6q141 14 211 31q121 29 223 96l35 41q92 109 145 260q53 152 54 297v10q-2 168 -54 322q-33 98 -116 190q-90 100 -197 144q-129 51 -250 51q-20 0 -143 -18l-41 -7l-68 -26 q-188 -74 -309 -291q-92 -164 -92 -332zM680 805q4 51 41 96q47 59 90 55q98 -8 123 -69q4 -10 8 -56q31 -39 -47 -124q-35 -39 -90 -33q-51 8 -90 45q-37 37 -35 86z" />
<glyph unicode="1" horiz-adv-x="555" d="M31 55l20 33l74 14l35 41l41 41q41 166 41 398q0 63 -6 217q-4 139 -3 217q2 160 -32 284l-47 62h-41l-29 -21l-39 -6v15l27 18l32 29l267 162l41 -7q-25 -82 -31 -198q-6 -98 -10 -195l6 -94l-6 -447l6 -149l6 -231l29 -86q31 -63 100 -91v-20h-20q-68 18 -162 18 q-37 0 -112 -3t-114 -3t-73 2z" />
<glyph unicode="2" horiz-adv-x="1277" d="M35 1260q0 131 119 249q4 18 19 23.5t22 17.5q80 41 141 62q33 8 170 26q139 -6 221 -28q115 -33 219 -113q61 -49 115 -158l14 -39q14 -51 15 -108q0 -61 -29 -203l-182 -311l-62 -70q-16 -10 -57 -68.5t-72 -72.5l-94 -102l-156 -150l-20 -12l47 -6l223 -7l422 19 l33 22l33 5l41 40l26 15l-74 -217h-405l-631 6l-12 -6h-21l21 41l74 12l26 35l35 8l33 27q160 109 237 202l33 41l117 135q254 299 254 582q0 156 -78 299q-135 129 -317 129q-39 0 -123 -6q-104 -20 -187.5 -123.5t-79.5 -195.5l23 -89l18 -34l29 -25l21 -37l-9 -12 q-18 -8 -39 -8q-74 0 -129 82l-8 14q-16 55 -16 109z" />
<glyph unicode="3" horiz-adv-x="1302" d="M66 399l6 15l41 -62l26 -55l41 -45q4 -16 15 -25q20 -12 26 -18l101 -68l75 -14l33 -21q78 -6 137 -6q125 0 236 35l41 27l20 8l68 53q80 92 108 183q23 74 23 141q0 57 -16 123l-33 82q-133 188 -352 188q-53 0 -109 -12q145 197 414 581l-170 9q-72 2 -123 2 q-276 0 -467 -119q0 37 25.5 97.5t29.5 86.5q53 -6 318 -6h313l154 -8l122 8l41 -8q-203 -217 -426 -570q176 -39 277 -114l80 -60l55 -75l21 -41l20 -109q0 -170 -129 -317q-35 -59 -94 -95l-62 -49q-20 -6 -61 -31.5t-68 -29.5l-47 -19q-43 -8 -110 -10q-90 -2 -113 -4 h-21q-123 0 -317 59l-137 70l-6 129v39z" />
<glyph unicode="4" horiz-adv-x="1560" d="M55 637q63 74 189 182q174 154 211 191l28 41l291 276l318 279h6l8 -414l12 -80v-172l-6 -80v-149l12 -21q180 -12 299 29q12 4 15 4l32 55l35 -14l-6 -195l-37 -20v12q-2 16 -17 27.5t-28 19.5l-299 15q2 -123 2 -246q2 -145 31 -250l49 -53v-27q-82 10 -156 10 t-155 -10h-21l15 27h26l21 20q33 45 41 113q12 113 14 119l4 264l-12 33l-758 14l-149 -8zM260 705l94 -7h39l199 -16l33 8l305 -8l14 -4l41 4l-8 401q2 16 -12 291h-29l-332 -317l-291 -264l-26 -41z" />
<glyph unicode="5" horiz-adv-x="1210" d="M90 276l6 50l27 -15l12 -41l35 -47q172 -121 340 -121q113 0 242 68l49 33l73 67q41 37 64 117q16 68 33 133v49l-21 136q-14 51 -102 155q-131 102 -334 103q-20 0 -324 -29q14 66 76 301q49 182 60 295l20 35l658 -6l79 20l-12 -55l-41 -94l-59 53q-94 12 -242 12 q-205 0 -242 2l-120 -446l114 -15h35q358 0 555 -237l35 -62q14 -78 14 -151q0 -184 -104 -342l-107 -94l-35 -29q-49 -29 -196 -74l-182 -14l-9 14l-12 -6l-162 12l-211 82q-12 102 -12 141z" />
<glyph unicode="6" horiz-adv-x="1292" d="M76 631q0 127 41 309q61 176 190 334q147 180 303 235l41 15l35 20l35 6l18 15q133 27 197 26l41 -20l-14 -27q-205 10 -377 -129q-92 -57 -170 -170q-100 -143 -140 -330q-14 -70 -38 -325l34 -191l21 -47l14 -41l27 -55q135 -190 354 -190q23 0 45 2l101 34l34 25l21 8 l26 35q90 80 127 186q23 61 37 193q0 100 -57 196q-63 111 -168 148h-195l-34 -12q-61 -27 -95 -82l-20 -6l-6 38q74 86 155 109q76 23 150 23q221 0 365 -185l20 -41l6 -32q16 -82 17 -150q0 -195 -146 -365l-27 -49l-73 -47l-41 -14l-103 -47q-37 -16 -90 -21 q-45 -4 -92 -6l-14 14l-13 -8q-129 0 -237 74l-109 76l-108 114l-41 76l-6 33q-41 113 -41 246z" />
<glyph unicode="7" horiz-adv-x="1175" d="M37 1339q23 68 65 205l258 -26h136l61 6l582 -6q-78 -109 -187 -301q-117 -207 -178 -295l-55 -117q-47 -61 -98 -168q-57 -117 -91 -164l-47 -88l-75 -115l-148 -264l-149 6l-41 -12l-13 6q162 240 428 709q272 481 424 706l-317 15h-135q-158 0 -178 -2 q-96 -8 -177 -54l-32 -41h-33z" />
<glyph unicode="8" horiz-adv-x="1130" d="M43 408q31 84 49 118q31 59 78 101l80 75l112 86l27 7l35 32q-178 70 -301 201q-49 72 -49 148q0 92 88 233l61 61l39 25q125 80 258 80q158 0 350 -113l68 -59l27 -47l20 -80q8 -100 -98 -209q-88 -90 -209 -145l-62 -27q111 -49 220 -100q125 -66 202 -160l13 -41 l14 -33q23 -53 22 -110q0 -168 -182 -332l-14 -6l-33 -33l-80 -41l-135 -25l-174 -14l-12 6l-166 33l-41 29l-127 71l-53 68l-21 41q-18 72 -6 160zM176 367q0 -53 21 -93l32 -67q72 -88 170 -125q57 -23 170 -35l15 -8l18 14l141 27l35 26l25 7l80 73q72 115 71 211 q1 58 -24 111l-12 39q-92 117 -248 180l-47 29l-134 51l-59 -33l-47 -33q-76 -66 -121 -114q-86 -96 -86 -260zM203 1245q0 -63 39 -135q121 -141 276 -176l25 -19l14 -6h21l38 33l86 47l76 92q61 100 62 183q0 75 -49 145q-104 102 -269 113q-86 6 -174 -47 q-96 -59 -133 -160q-12 -33 -12 -70z" />
<glyph unicode="9" horiz-adv-x="1181" d="M23 1090q0 205 180 354l26 12l33 27q49 29 109 39q37 20 92 20q373 12 547 -219l41 -53q25 -41 53 -121l26 -94l29 -86q0 -305 -121 -488q-61 -90 -71 -106q-45 -59 -97 -109l-39 -53l-28 -12l-25 -27l-61 -41l-88 -47l-51 -12q-57 -18 -154 -25q-117 -8 -154 -14l-20 4 l-160 29v12l39 6l41 -18l113 -9l100 15l121 32l33 21l41 6l32 27l33 14l41 33l86 80l27 41q186 279 186 508l8 47l-14 172q-10 135 -100 254l-33 34l-33 33l-68 60l-59 26q-117 23 -172 23q-66 0 -123 -23l-33 -12q-190 -125 -190 -356q0 -47 8 -99q20 -66 37 -92 q25 -47 72 -82l67 -47q25 -10 69 -15t64 -11l133 20l68 33l39 41l47 47v12l12 -31q-37 -102 -112 -135q-113 -51 -219 -51q-145 0 -289 90l-51 33l-41 63l-21 45q-27 94 -26 175z" />
<glyph unicode=":" horiz-adv-x="264" d="M27 190q88 63 123 136q24 -80 90 -129q-53 -80 -113 -131q-59 43 -100 124zM35 774q88 63 123 135q27 -80 90 -129q-53 -80 -113 -131q-59 43 -100 125z" />
<glyph unicode=";" horiz-adv-x="264" d="M31 166q80 57 125 151q35 -104 88 -145q-12 -18 -62 -139q-45 -109 -63 -125q29 74 28 112q0 29 -12 46q-59 59 -104 100zM37 760q92 66 125 133q24 -80 90 -129q-53 -80 -113 -131q-59 43 -102 127z" />
<glyph unicode="&#x3c;" horiz-adv-x="770" d="M29 733l61 31l381 369l100 137l13 37v24v17l16 8h10l25 -37l82 -88l-12 -39l-25 12l-29 13q-29 -29 -55 -58l-416 -430l-8 2l-2 -8l233 -225l156 -123l64 -31l28 -2l29 12l20 11l-14 -43l-35 -23l-69 -47l-31 -62q-4 0 -6 23l-4 66l-193 176l-262 258z" />
<glyph unicode="&#x3e;" horiz-adv-x="731" d="M14 1239l12 -39l25 12l29 13q29 -29 55 -58l416 -430l8 2l2 -8l-233 -225l-156 -123l-64 -31l-28 -2l-29 12l-20 11l14 -43l35 -23l69 -47l31 -62q4 0 6 23l4 66l193 176l262 258l57 20l-61 31l-381 369l-100 137l-13 37v24v17l-16 8h-10l-25 -37z" />
<glyph unicode="A" horiz-adv-x="1703" d="M0 53l172 125l29 29q70 147 313 690q193 426 326 688l28 53q74 -231 240 -577q139 -289 276 -580l15 -41l151 -247l56 -76l96 -47q4 -18 -14 -21q-8 0 -15 -8l-20 6q-193 25 -223 25q-70 0 -127 -19l-15 17l21 26l26 35q1 5 1 11q0 55 -48 196l-14 41l-152 330l-303 20 h-303l-6 -6q-78 -150 -156 -299q-86 -174 -100 -293l37 -49v-12zM530 793h15l536 26q-12 25 -131 268q-78 160 -151 263z" />
<glyph unicode="B" horiz-adv-x="1120" d="M27 96l47 21q35 43 47 110q8 59 16 117l8 262v166q0 416 -49 694l-28 64l-27 33v41q20 -1 45 -1q62 0 156 7q154 12 213 12q328 0 460 -244l7 -43v-53l-7 -78q-45 -113 -116 -184l-29 -35l-35 -20l-82 -50q227 -12 379 -192q61 -88 62 -186q0 -129 -111 -283 q-117 -162 -315 -184l-70 -9h-49q-51 0 -156.5 10.5t-156.5 10.5q-102 0 -181 -29l-22 8zM260 866l8 -420q2 -162 27 -282q61 -53 172 -53l20 -9q98 8 146 19q84 16 151 57q158 115 158 332q0 43 -6 88q-16 119 -133 203q-102 73 -211 73h-14zM260 915l41 -12l23 -8 q74 6 149 12q86 8 154 43q160 109 159 307v5q0 79 -28 157l-15 27q-111 133 -288 133q-53 0 -172 -16l-9 -13l-6 -538z" />
<glyph unicode="C" horiz-adv-x="1445" d="M33 823q0 399 325 658l29 28q195 100 457 101q92 0 262 -15q184 -16 266 -18l33 -186l-6 -35l-41 28q-90 106 -228 144q-23 6 -241 35h-62q-143 0 -282 -68l-76 -49q-223 -190 -254 -510q-6 -61 -6 -119q0 -207 80 -377l16 -41q215 -289 569 -297h23q140 0 231 23 q129 35 244 129l6 14l35 33l-49 -178q-27 -14 -90 -33q-106 -41 -385 -55l-21 6q-479 14 -723 365l-34 49l-41 90l-9 33q-28 123 -28 237v8z" />
<glyph unicode="D" horiz-adv-x="1642" d="M29 1577l6 20l16 7q68 -18 273 -19h41q190 18 372 19q244 0 379 -43q211 -68 359 -267q66 -115 81 -172l15 -49l6 -6l22 -111v-41l15 -81q-33 -311 -271 -580l-26 -14l-29 -41l-69 -41l-41 -27q-31 -18 -97 -41q-94 -43 -204 -51q-45 -4 -201 -4h-88l-15 6 q-53 0 -156.5 10t-156.5 10t-100 -8l-47 8q0 10 12 21l55 41q31 68 31 184q0 141 10 189v530l-20 344l-27 125l-35 47l-26 29zM344 889l8 -414q0 -129 2 -156q8 -90 39 -161q45 -39 103 -52q49 -6 98 -10l12 -6l41 6q24 -1 48 -1q237 0 421 91q319 258 320 643 q0 130 -37 273q-119 461 -719 461q-141 0 -295 -27q-25 -92 -29 -213l1 29q1 0 1 -242v-57zM764 959q35 36 86 36t92 -30q45 -32 45 -63v-3q-4 -78 -47 -125q-29 -32 -70 -32q-8 0 -18 1q-53 6 -91 43q-36 35 -36 81q0 52 39 92z" />
<glyph unicode="E" horiz-adv-x="1144" d="M25 1556l8 35q179 -4 343 -4q341 0 613 17l27 -115l-21 -43l-34 43q-98 45 -236 49q-119 2 -240 4l-137 -6l-6 -6l-20 -326l14 -280q35 -2 164 -11q100 -6 164 -6q123 0 223 23l12 6q14 6 14 8l29 21l27 -15l-8 -47l8 -90l-8 -14l-74 41l-215 20h-275l-69 -6l-15 -61 v-271l23 -323l6 -35l55 -62q59 -20 138 -22l-32 1q0 1 169 1h63l199 29l55 20l43 33h19l63 69h6l-69 -186v-27h-213l-228 15q-148 9 -279 9t-245 -9l-41 6v29h29q57 49 73 137q10 72 23 143q8 109 10 240q1 44 1 103t-1 132q-4 172 -4 236v74q0 244 -76 387l-34 34h-41z" />
<glyph unicode="F" horiz-adv-x="1024" d="M37 1563v28q192 -13 471 -14q206 0 459 8l20 -55v-78l-6 -47h-14q-123 125 -342 125q-35 0 -144 -6q-60 -3 -103 -3q-21 0 -38 1l-29 -27l-6 -49l-6 -311l6 -211l311 -15l170 15l64 41l6 -172l-41 12q-31 27 -72 35t-79 14l-172 6h-56l-125 -6l-12 -303v-297l12 -137 l15 -27l8 -8l67 -47l-34 -23l-15 8q-70 10 -141 11q-70 0 -145 -11l-15 33l41 8l47 62l23 153l-6 220v227l6 35v329q0 276 -64 422z" />
<glyph unicode="G" horiz-adv-x="1501" d="M25 766q0 205 98 389q104 197 305 334l113 53q127 43 379 55l81 -12q66 -4 197 -25.5t195 -23.5l16 -131l6 -35l-6 -14l-35 8v6q-201 158 -485 158q-100 0 -232 -19l-49 -14l-61 -22l-41 -21l-35 -27l-76 -55l-28 -41l-88 -110q-35 -76 -56 -228l-14 -96l14 -358l15 -50 l12 -32l49 -97q143 -282 521 -282h24q205 4 385 55l8 481l-14 41l-9 6l-26 37l-70 21l207 6l35 -6l117 12l-15 -33l-53 -14q-29 -45 -29 -84v-61l6 -138v-61l-6 -160v-102l-90 -15l-6 -8l-55 -6l-6 -6l-49 -21q-39 0 -114 -11q-63 -9 -101 -9h-13l-137 6l-14 -6 q-397 14 -641 338l-82 158q-47 129 -47 270z" />
<glyph unicode="H" horiz-adv-x="1472" d="M10 33l17 28l41 13q45 55 61 125q6 31 12 123l-6 90l6 96v139l-6 348l-41 435l-35 67q-4 16 -20 25q-23 10 -29 16l8 35l351 -6q4 -25 -2 -25q-14 -4 -19 -10q-49 -63 -61 -146q-4 -27 -6 -143l-9 -399l400 -6l502 14l6 166l14 6l-55 391l-27 76q-6 20 -35 33 q-35 16 -41 20v23q124 -6 213 -6t144 6l55 -6l-55 -35l-27 -35q-47 -248 -47 -741q0 -49 -3 -147.5t-3 -145.5q0 -209 47 -348l53 -62l35 -6l-35 -21h-6l-158 13l-172 -13l-14 7l29 28q20 8 38 35q10 18 23 39q12 80 27 233l8 326l-8 94l-908 -12q0 -463 35 -641l15 -33 l47 -55l-322 -14z" />
<glyph unicode="I" horiz-adv-x="464" d="M20 1569l9 14q85 -4 163 -4q125 0 232 10v-35h-8l-62 -55q-22 -69 -22 -175v-9v-90q-2 -86 -13 -142v-84l7 -174l-7 -55l21 -639h14v-27l6 -14l50 -41l34 -14l-6 -15q-68 0 -217 15h-47l-125 -23l-14 8l-6 21h41l26 20l49 43q29 154 29 451v201q0 270 -6 364 q-12 205 -57 365l-56 63z" />
<glyph unicode="J" horiz-adv-x="1021" d="M53 119v215l21 -6l14 -41q43 -92 137 -146q82 -47 174 -47q23 0 41 4l43 6q115 53 172 156q47 80 64 203l20 196l-6 105q-4 186 -8 371q-8 215 -70 364l-67 72l-29 12l21 29l153 -21l187 15l49 -9l-21 -26l-35 -43q-29 -100 -30 -256q-4 -209 -11 -258v-271l-14 -374 q-29 -115 -119 -203q-127 -125 -395 -125l-20 8q-104 10 -271 70z" />
<glyph unicode="K" horiz-adv-x="1523" d="M-12 41l35 29l6 8l69 61q25 72 29 256l6 285l-12 154l6 131v69l-6 113v47q0 172 -64 305l-41 57l326 41l23 -34l-64 -41q-27 -137 -29 -361q0 -283 -6 -362q362 297 686 688l17 69v50l227 -15l49 -8q0 -14 -31 -24q-45 -14 -59 -25q-125 -92 -328 -299 q-213 -219 -311 -297l-84 -84v-20q117 -82 369 -289q240 -197 366 -285q205 -142 369 -197l-131 -22h-291l6 63l-69 62l-187 145q-190 147 -551 383l-34 8l-13 -98v-110q0 -152 21 -312l20 -43l35 -57l49 -41l-26 8l-17 -8l-174 22z" />
<glyph unicode="L" horiz-adv-x="1140" d="M23 1563v14l47 20h374l50 -14q0 -16 -25 -22q-43 -10 -45 -11l-47 -43q-16 -70 -19 -194q-2 -135 -10 -195q0 -102 -4 -290.5t-4 -286.5v-138q4 -57 6 -116q4 -70 31 -121q4 -12 6 -12q106 -53 244 -54q57 0 145 9q125 14 146 16l49 20l34 29q51 25 76 90l41 23 q-25 -92 -47 -209l-29 -49l-409 6l-76 -6h-55l-17 6h-428v14l41 21l21 12l28 29q61 293 62 616q0 340 -70 760l-55 69z" />
<glyph unicode="M" horiz-adv-x="1839" d="M4 49q0 4 10.5 5t14.5 3l55 41q47 197 66 467q12 236 24 469l35 563q18 4 27.5 -12t21.5 -22l47 -84q129 -231 389 -701l15 -41l49 -78l20 -32l160 -293q301 608 535 1243l34 61l47 -32l15 -183v-34l125 -1153l28 -97l35 -61l78 -21l-70 -22h-112l-160 -15l-33 37h47 q31 92 31 205q0 70 -15.5 206t-15.5 206l-14 57h8l-63 463q-55 -102 -123 -254q-57 -125 -113 -252q-2 -4 -270 -631l-84 117l-29 35l-549 979l-49 -778q-10 -176 -10 -174q0 -90 27 -158l61 -37h-174l-96 -6l-15 -6q-10 14 -10 20z" />
<glyph unicode="N" horiz-adv-x="1593" d="M18 29l7 34h16q61 59 78 136q9 37 9 99q0 21 -1 44q-2 41 -2 73q0 49 4 79v313l8 53v633l-14 63l297 -256l43 -43q82 -82 239.5 -261t239.5 -259l41 -43q47 -68 143 -164q78 -74 156 -149l76 -76l-29 1112l14 6l-47 99v6l-36 35l-41 14l8 14q51 -8 284 -8h64v-33h-35 l-43 -28l-41 -119l-6 -55l6 -113q-3 -42 -3 -95q0 -93 9 -222l-20 -340v-64h14l-6 -49l-8 -33v-203l8 -110l-8 -62v-57l-21 6h-8l-178 197q-129 137 -412 450l-96 84l-479 498h-8l-7 -6v-47l7 -84q-4 -25 -4 -62q0 -25 2 -56q1 -24 1 -44q0 -46 -6 -76l-6 -428l6 -258 l15 -49l6 -6l8 -15q20 -27 96 -55l-63 -35l-236 6z" />
<glyph unicode="O" horiz-adv-x="1767" d="M27 844q0 211 145 426q154 229 369 305l41 14l43 15q135 45 276 45h12q35 0 72 -4q211 -14 428 -175q234 -172 293 -383q35 -123 35 -237q0 -344 -297 -625l-64 -49l-92 -49l-35 -29q-197 -84 -430 -84l-22 6q-250 0 -465 185l-57 49l-99 119l-28 43l-23 37l-55 118 l-29 93q-2 41 -14 120q-4 29 -4 60zM195 877l6 -93l37 -225l20 -63l27 -60l8 -35l35 -63l84 -92q14 -12 65 -47l64 -43l84 -43l133 -43h51l14 -7l99 7h49q61 14 123 28q80 18 116 43l72 49q297 204 297 650q0 139 -43 262q-74 215 -211 346q-199 154 -430 154 q-109 0 -242 -33l-43 -23l-43 -14q-188 -98 -295 -352q10 -6 2 -15q-8 -6 -24 -6zM796 959q34 36 86 36t93 -30q45 -32 45 -63v-3q-4 -78 -47 -125q-29 -32 -70 -32q-8 0 -18 1q-53 6 -91 43q-36 35 -36 81q-1 52 38 92z" />
<glyph unicode="P" horiz-adv-x="1198" d="M43 1604l8 12q104 -12 309 -12q43 0 127 4t125 4q279 0 455 -178q25 -43 49.5 -88t28.5 -82q10 -49 10 -97q0 -80 -31 -178l-71 -127q-181 -155 -384 -155h-3q-115 0 -263 49l-8 35q20 -4 113 -27q66 -16 106 -16l113 22q123 23 213 148q82 115 82 233q0 27 -4 49 l-35 156q-129 203 -408 203q-35 0 -99 -3.5t-95 -3.5l-12 -6l-29 -225l-8 -92v-897l28 -199l15 -29q4 -16 24.5 -23t24.5 -11q8 -14 -8 -27q-42 8 -119.5 8t-190.5 -8l-8 6l-20 -6v27l49 6l29 16q33 53 39 129q6 106 10 125v467l-15 436q0 170 -55 277q-12 41 -92 78z" />
<glyph unicode="Q" horiz-adv-x="1757" d="M41 829q0 158 70 322l6 49q129 219 334 336q190 106 407 106q160 0 305 -61q168 -49 326 -195q164 -152 203 -307q30 -109 30 -214v-7q0 -381 -354 -676l-29 -12l-34 -29q-33 -23 -99 -51l-16 -6l-12 -8q217 -18 512 -148q418 -182 493 -207q182 -59 371 -59q45 0 86 4 l14 -12l-84 -23h-6q-68 -10 -137 -10q-238 0 -576 119q-289 111 -579 219q-338 119 -576 119q-55 0 -106 -6q-195 78 -318 217l-112 127q-119 209 -119 413zM217 756v-12q0 -203 133 -420q205 -240 494 -240h86q47 4 99 8t91 21l78 28l35 29l37 12l84 78q66 59 102 131 q6 12 60 137l43 277q0 553 -396 735q-170 55 -309 55q-258 0 -463 -190q-113 -141 -149 -322q-23 -109 -25 -327zM796 959q35 36 86.5 36t92.5 -30q45 -32 45 -63v-3q-4 -78 -47 -125q-29 -32 -70 -32q-9 0 -18 1q-53 6 -91 43q-36 35 -36 81q0 52 38 92z" />
<glyph unicode="R" horiz-adv-x="1449" d="M27 1595q76 -14 172 -14q61 0 184 8t184 8q289 0 475 -178q74 -119 74 -231q0 -139 -117 -291l-75 -72q-53 -25 -164 -77l35 -13l86 -57l118 -170l21 -35q84 -141 106 -176q68 -102 144 -170q39 -37 88 -37q8 0 65 8l-14 -49l-76 -29h-14q-145 0 -262 142l-92 112 l-191 318l-98 106q-55 18 -170 18.5t-170 18.5l-14 -8v-297q2 -80 6 -162q4 -88 22 -155l51 -58v-35q-56 17 -143 17h-10q-143 -2 -152 -2h-20l6 35h29l49 49q39 512 39 698q0 393 -88 701l-50 43zM315 1016q-1 -14 -1 -31q0 -80 16 -215l71 -8l21 -6l14 6q43 -3 81 -3 q131 0 208 32q102 31 173 139q67 103 67 202v11q-6 176 -70 270q-137 147 -356 148q-20 0 -209 -15l-15 -403v-127z" />
<glyph unicode="S" horiz-adv-x="970" d="M37 1122q-2 22 -2 44q0 90 39 175q51 115 153 177q111 69 252 69h4q63 0 172 -16q121 -16 172 -19l35 -20l-6 -148q-66 84 -190 127q-147 27 -205 27q-53 0 -99 -12l-77 -37l-86 -76q-35 -76 -35 -143q0 -84 57 -168q84 -74 344 -211q214 -113 320 -248q51 -90 51 -184 q0 -125 -102 -303l-84 -80l-70 -33q-162 -51 -277 -51l-20 8q-162 0 -311 98l-21 228l6 34q31 -70 62 -139q41 -80 114 -123q109 -43 209 -43q94 0 187 37l45 27q109 70 127 270q-14 111 -64 176q-100 127 -325 232q-233 106 -334 227z" />
<glyph unicode="T" horiz-adv-x="1173" d="M-47 1401q0 18 14.5 69.5t14.5 73.5l22 37h127l756 -14l211 6h106l8 -29l21 -112l-29 -35l-63 69q-90 25 -226 27q-113 2 -227 2l-14 -84v-608l14 -84v-92q0 -283 29 -508l20 -35l58 -43l-361 -23l-14 9l-6 28l41 6h8q74 143 74 365q0 29 -2 121q-1 38 -1 68.5t1 54.5 q6 53 6 239v113l-15 403l-8 70l-196 14h-50l-239 -43l-8 -6l-64 -84q-8 8 -8 25z" />
<glyph unicode="U" horiz-adv-x="1703" d="M43 1561q36 8 100 8q19 0 41 -1t42 -1q64 0 100 8q1 -27 1 -60q0 -92 -8 -237q0 -606 35 -848l15 -41q51 -152 211 -239q122 -68 240 -68q18 0 36 2l135 14l21 15l176 63l35 23l22 6l105 84q47 72 47 168q0 31 -4 80l8 170v118l-23 326l-6 211l-14 65l-58 91l-77 43l8 14 h63l35 29l14 -35h183l16 -8l-8 -76v-228l8 -120l-8 -72v-41l8 -453h6l15 -12l-29 -72v-28l29 -326q18 4 20 -6q0 -6 -6 -23l6 -12l49 -29l29 -20l-14 -29q-20 0 -113 9q-27 2 -51 2q-35 0 -62 -5l-43 23l23 133v78l-72 -64l-121 -86l-34 -28l-58 -13l-41 -14 q-158 -49 -264 -49q-47 0 -90 8l-14 12l-13 -12l-164 35q-180 76 -276 219l-6 12q-80 174 -80 455v113q2 76 2 112q0 88 -6 154l-8 92q-2 82 -4 162q-6 90 -46 156l-26 34z" />
<glyph unicode="V" horiz-adv-x="1785" d="M0 1589q199 0 393 21l-22 -64q-1 -12 -1 -24q0 -70 38 -160l90 -184l26 -43l406 -832q59 133 211 420q145 279 207 424q100 233 120 422l-47 41v14h230l92 14l20 -28l-63 -13q-133 -174 -246 -409q-94 -209 -188 -416l-160 -330l-203 -405l-14 6l-721 1387 q-29 43 -133 133q-14 10 -35 26z" />
<glyph unicode="W" horiz-adv-x="2308" d="M-35 1610q30 22 110 22q25 0 54 -2q66 -6 112 -6q54 0 81 8h57q0 -14 -17 -28l-12 -7l-8 -139q53 -106 154 -338l14 -41l350 -755l133 223l6 20l121 260l-280 603l-29 34l-104 133l-78 21v14l266 -14l70 14l55 -8l-21 -27h-6l-28 -34l63 -156l105 -266l55 -131l22 -21 q18 61 136 289q92 174 94 285l-41 41l14 28l111 -14l92 14l70 -8l-64 -41q-106 -127 -207 -344q-141 -303 -170 -356q61 -143 125 -289q74 -170 141 -285l48 56q2 4 282 573q168 344 244 575v56l-43 35l8 14l131 -14l92 14l70 -14l-35 -15l-20 -14q-139 -164 -265 -428 q-106 -227 -211 -453l-335 -637l-29 23l-287 629l-315 -646l-27 17l-141 313l-27 35l-92 197l-6 34q-68 102 -164 340q-100 246 -164 351q-109 180 -260 260z" />
<glyph unicode="X" horiz-adv-x="1630" d="M18 80h50q123 68 245 213q72 82 207 280q129 190 205 275l-217 307q-256 367 -467 449q150 0 461 14l-8 -49q-2 -20 -2 -39q0 -78 51 -150l55 -77l49 -70l148 -203l28 -49q145 186 185 238q98 135 159 245q17 41 17 87q0 22 -4 46l284 13l-41 -27l-55 -41 q-117 -111 -254 -293q-184 -244 -235 -303l-7 -20l76 -133l51 -56l181 -254l92 -110h12q88 -137 223 -252l105 -64l-35 -14h-8q-66 8 -170.5 8t-247.5 -8q-8 18 -8 23q0 4 9 5t15 9l13 6l28 49q-6 61 -98 203l-29 41l-295 414q-72 -88 -272 -365q-61 -88 -160 -258l-8 -84 l23 -43q-51 10 -111 12q-41 0 -106 -2q-80 -2 -105 -2l-22 6z" />
<glyph unicode="Y" horiz-adv-x="1497" d="M-92 1608q90 0 280 -15l105 21l14 -84l55 -105l29 -34l133 -191l49 -61l105 -148l35 -26l69 -99q389 434 441 672l-33 49v6q41 -8 86 -8q43 0 115 10q84 10 112 13l43 -6l-8 -15l-63 -22l-62 -47q-47 -35 -182 -211l-406 -531v-518l13 -113l14 -26l63 -80q-90 12 -170 12 q-82 0 -165 -12h-21l14 29h7l55 34q33 102 33 238q0 45 -5.5 133t-5.5 133q0 57 7 105l-7 65l-28 41l-113 139l-229 301q-211 272 -379 351z" />
<glyph unicode="Z" horiz-adv-x="1355" d="M25 31l20 49q426 500 1020 1433l-125 21h-154l-251 -14q-104 -2 -207 -7q-117 -12 -193 -83l-35 -9l78 189l817 -21h336q-588 -786 -1034 -1468l223 -29h92l174 8q23 -1 47 -1q131 0 310 36l35 6l6 15l78 96h8l-58 -229h-118l-50 8h-83l-70 -8l-6 14l-15 -6h-845z" />
<glyph unicode="[" horiz-adv-x="948" d="M186 1700l23 14l47 -10q96 -27 150 -27h40q190 18 373 19l-2 -58q-293 0 -350 -10q-25 -92 -29 -213q-2 -8 -2 -305v-57l-14 -164l6 -533q0 -72 10 -221q6 -57 37 -129q35 6 126 -14.5t187 12.5l3 -98l-449 4q-6 0 -100 -8l-47 8q0 12 12 20l55 41q31 68 31 197 q-2 184 4 209l2 649l-16 436l-27 125l-35 47l-24 13z" />
<glyph unicode="\" horiz-adv-x="735" d="M-7 1624q2 -23 19 -21l18 2l37 -38q20 -23 39 -46l189 -432l317 -948l23 -125v-41l-35 -43l-4 -30l26 -15l23 2q111 8 110 8q29 2 45 -2l2 21l-14 29l-24 14l-29 82q-39 123 -80 248l-238 700l-108 272l-45 185l-29 114l17 33l14 27l-17 22h-45l-38 -6q-12 -2 -160 6z " />
<glyph unicode="]" horiz-adv-x="948" d="M53 1696l2 -58q293 0 350 -10q25 -92 29 -213q2 -8 2 -305v-57l14 -164l-6 -533q0 -72 -10 -221q-6 -57 -37 -129q-35 6 -126 -14.5t-187 12.5l-3 -98l449 4q6 0 100 -8l47 8q0 12 -12 20l-55 41q-31 68 -31 197q2 184 -4 209l-2 649l16 436l27 125l35 47l24 13l11 53 l-23 14l-47 -10q-96 -27 -150 -27h-40q-190 18 -373 19z" />
<glyph unicode="^" horiz-adv-x="1036" d="M37 1243q6 10 18 10h82l88 93l258 239l27 53l53 -45l244 -225l74 -65l61 -13l25 13l41 -23l-7 -25l-38 -30q0 -2 -64 -47q-80 -57 -80 -58l-37 -30q-8 6 -4 20l17 70q0 23 -47 90l-193 176l-31 -2l-35 61l-227 -219l-26 -55l53 -51l16 -21l-10 -45h-27l-30 23 q-6 8 -50 26q-41 23 -112 51z" />
<glyph unicode="`" horiz-adv-x="264" d="M4 1624q75 -38 154 -30q4 -21 53 -142q43 -110 42 -134q-31 73 -58 101q-21 21 -41 23q-83 2 -144 0q19 106 -6 182z" />
<glyph unicode="a" horiz-adv-x="1611" d="M-84 53l172 125l29 29q70 147 313 690q193 426 326 688l28 53q74 -231 240 -577q139 -289 276 -580l15 -41l151 -247l56 -76l96 -47q4 -18 -14 -21q-8 0 -15 -8l-20 6q-193 25 -223 25q-70 0 -127 -19l-15 17l21 26l26 35q1 5 1 11q0 55 -48 196l-14 41l-152 330l-303 20 h-303l-6 -6q-78 -150 -156 -299q-86 -174 -100 -293l37 -49v-12zM446 793h15l536 26q-12 25 -131 268q-78 160 -151 263z" />
<glyph unicode="b" horiz-adv-x="1120" d="M27 96l47 21q35 43 47 110q8 59 16 117l8 262v166q0 416 -49 694l-28 64l-27 33v41q20 -1 45 -1q62 0 156 7q154 12 213 12q328 0 460 -244l7 -43v-53l-7 -78q-45 -113 -116 -184l-29 -35l-35 -20l-82 -50q227 -12 379 -192q61 -88 62 -186q0 -129 -111 -283 q-117 -162 -315 -184l-70 -9h-49q-51 0 -156.5 10.5t-156.5 10.5q-102 0 -181 -29l-22 8zM260 866l8 -420q2 -162 27 -282q61 -53 172 -53l20 -9q98 8 146 19q84 16 151 57q158 115 158 332q0 43 -6 88q-16 119 -133 203q-102 73 -211 73h-14zM260 915l41 -12l23 -8 q74 6 149 12q86 8 154 43q160 109 159 307v5q0 79 -28 157l-15 27q-111 133 -288 133q-53 0 -172 -16l-9 -13l-6 -538z" />
<glyph unicode="c" horiz-adv-x="1392" d="M-16 823q0 399 325 658l29 28q195 100 457 101q92 0 262 -15q184 -16 266 -18l33 -186l-6 -35l-41 28q-90 106 -228 144q-23 6 -241 35h-62q-143 0 -282 -68l-76 -49q-223 -190 -254 -510q-6 -61 -6 -119q0 -207 80 -377l16 -41q215 -289 569 -297h23q140 0 231 23 q129 35 244 129l6 14l35 33l-49 -178q-27 -14 -90 -33q-106 -41 -385 -55l-21 6q-479 14 -723 365l-34 49l-41 90l-9 33q-28 123 -28 237v8z" />
<glyph unicode="d" horiz-adv-x="1642" d="M29 1577l6 20l16 7q68 -18 273 -19h41q190 18 372 19q244 0 379 -43q211 -68 359 -267q66 -115 81 -172l15 -49l6 -6l22 -111v-41l15 -81q-33 -311 -271 -580l-26 -14l-29 -41l-69 -41l-41 -27q-31 -18 -97 -41q-94 -43 -204 -51q-45 -4 -201 -4h-88l-15 6 q-53 0 -156.5 10t-156.5 10t-100 -8l-47 8q0 10 12 21l55 41q31 68 31 184q0 141 10 189v530l-20 344l-27 125l-35 47l-26 29zM344 889l8 -414q0 -129 2 -156q8 -90 39 -161q45 -39 103 -52q49 -6 98 -10l12 -6l41 6q24 -1 48 -1q237 0 421 91q319 258 320 643 q0 130 -37 273q-119 461 -719 461q-141 0 -295 -27q-25 -92 -29 -213l1 29q1 0 1 -242v-57zM764 959q35 36 86 36t92 -30q45 -32 45 -63v-3q-4 -78 -47 -125q-29 -32 -70 -32q-8 0 -18 1q-53 6 -91 43q-36 35 -36 81q0 52 39 92z" />
<glyph unicode="e" horiz-adv-x="1191" d="M74 1556l8 35q179 -4 343 -4q341 0 613 17l27 -115l-21 -43l-34 43q-98 45 -236 49q-119 2 -240 4l-137 -6l-6 -6l-20 -326l14 -280q35 -2 164 -11q100 -6 164 -6q123 0 223 23l12 6q14 6 14 8l29 21l27 -15l-8 -47l8 -90l-8 -14l-74 41l-215 20h-275l-69 -6l-15 -61 v-271l23 -323l6 -35l55 -62q59 -20 138 -22l-32 1q0 1 169 1h63l199 29l55 20l43 33h19l63 69h6l-69 -186v-27h-213l-228 15q-148 9 -279.5 9t-244.5 -9l-41 6v29h29q57 49 73 137q10 72 23 143q8 109 10 240q1 44 1 103t-1 132q-4 172 -4 236v74q0 244 -76 387l-34 34h-41z " />
<glyph unicode="f" horiz-adv-x="1024" d="M37 1563v28q192 -13 471 -13q206 0 459 7l20 -55v-78l-6 -47h-14q-123 125 -342 125q-35 0 -144 -6q-60 -3 -103 -3q-21 0 -38 1l-29 -27l-6 -49l-6 -311l6 -211l311 -15l170 15l64 41l6 -172l-41 12q-31 27 -72 35t-79 14l-172 6h-56l-125 -6l-12 -303v-297l12 -137 l15 -27l8 -8l67 -47l-34 -23l-15 8q-70 10 -141 11q-70 0 -145 -11l-15 33l41 8l47 62l23 153l-6 220v227l6 35v329q0 276 -64 422z" />
<glyph unicode="g" horiz-adv-x="1501" d="M25 766q0 205 98 389q104 197 305 334l113 53q127 43 379 55l81 -12q66 -4 197 -25.5t195 -23.5l16 -131l6 -35l-6 -14l-35 8v6q-201 158 -485 158q-100 0 -232 -19l-49 -14l-61 -22l-41 -21l-35 -27l-76 -55l-28 -41l-88 -110q-35 -76 -56 -228l-14 -96l14 -358l15 -50 l12 -32l49 -97q143 -282 521 -282h24q205 4 385 55l8 481l-14 41l-9 6l-26 37l-70 21l207 6l35 -6l117 12l-15 -33l-53 -14q-29 -45 -29 -84v-61l6 -138v-61l-6 -160v-102l-90 -15l-6 -8l-55 -6l-6 -6l-49 -21q-39 0 -114 -11q-63 -9 -101 -9h-13l-137 6l-14 -6 q-397 14 -641 338l-82 158q-47 129 -47 270z" />
<glyph unicode="h" horiz-adv-x="1472" d="M10 33l17 28l41 13q45 55 61 125q6 31 12 123l-6 90l6 96v139l-6 348l-41 435l-35 67q-4 16 -20 25q-23 10 -29 16l8 35l351 -6q4 -25 -2 -25q-14 -4 -19 -10q-49 -63 -61 -146q-4 -27 -6 -143l-9 -399l400 -6l502 14l6 166l14 6l-55 391l-27 76q-6 20 -35 33 q-35 16 -41 20v23q124 -6 213 -6t144 6l55 -6l-55 -35l-27 -35q-47 -248 -47 -741q0 -49 -3 -147.5t-3 -145.5q0 -209 47 -348l53 -62l35 -6l-35 -21h-6l-158 13l-172 -13l-14 7l29 28q20 8 38 35q10 18 23 39q12 80 27 233l8 326l-8 94l-908 -12q0 -463 35 -641l15 -33 l47 -55l-322 -14z" />
<glyph unicode="i" horiz-adv-x="464" d="M20 1569l9 14q85 -4 163 -4q125 0 232 10v-35h-8l-62 -55q-22 -69 -22 -175v-9v-90q-2 -86 -13 -142v-84l7 -174l-7 -55l21 -639h14v-27l6 -14l50 -41l34 -14l-6 -15q-68 0 -217 15h-47l-125 -23l-14 8l-6 21h41l26 20l49 43q29 154 29 451v201q0 270 -6 364 q-12 205 -57 365l-56 63z" />
<glyph unicode="j" horiz-adv-x="1021" d="M53 119v215l21 -6l14 -41q43 -92 137 -146q82 -47 174 -47q23 0 41 4l43 6q115 53 172 156q47 80 64 203l20 196l-6 105q-4 186 -8 371q-8 215 -70 364l-67 72l-29 12l21 29l153 -21l187 15l49 -9l-21 -26l-35 -43q-29 -100 -30 -256q-4 -209 -11 -258v-271l-14 -374 q-29 -115 -119 -203q-127 -125 -395 -125l-20 8q-104 10 -271 70z" />
<glyph unicode="k" horiz-adv-x="1523" d="M-12 41l35 29l6 8l69 61q25 72 29 256l6 285l-12 154l6 131v69l-6 113v47q0 172 -64 305l-41 57l326 41l23 -34l-64 -41q-27 -137 -29 -361q0 -283 -6 -362q362 297 686 688l17 69v50l227 -15l49 -8q0 -14 -31 -24q-45 -14 -59 -25q-125 -92 -328 -299 q-213 -219 -311 -297l-84 -84v-20q117 -82 369 -289q240 -197 366 -285q205 -142 369 -197l-131 -22h-291l6 63l-69 62l-187 145q-190 147 -551 383l-34 8l-13 -98v-110q0 -152 21 -312l20 -43l35 -57l49 -41l-26 8l-17 -8l-174 22z" />
<glyph unicode="l" horiz-adv-x="1140" d="M23 1563v14l47 20h374l50 -14q0 -16 -25 -22q-43 -10 -45 -11l-47 -43q-16 -70 -19 -194q-2 -135 -10 -195q0 -102 -4 -290.5t-4 -286.5v-138q4 -57 6 -116q4 -70 31 -121q4 -12 6 -12q106 -53 244 -54q57 0 145 9q125 14 146 16l49 20l34 29q51 25 76 90l41 23 q-25 -92 -47 -209l-29 -49l-409 6l-76 -6h-55l-17 6h-428v14l41 21l21 12l28 29q61 293 62 616q0 340 -70 760l-55 69z" />
<glyph unicode="m" horiz-adv-x="1839" d="M4 49q0 4 10.5 5t14.5 3l55 41q47 197 66 467q12 236 24 469l35 563q18 4 27.5 -12t21.5 -22l47 -84q129 -231 389 -701l15 -41l49 -78l20 -32l160 -293q301 608 535 1243l34 61l47 -32l15 -183v-34l125 -1153l28 -97l35 -61l78 -21l-70 -22h-112l-160 -15l-33 37h47 q31 92 31 205q0 70 -15.5 206t-15.5 206l-14 57h8l-63 463q-55 -102 -123 -254q-57 -125 -113 -252q-2 -4 -270 -631l-84 117l-29 35l-549 979l-49 -778q-10 -176 -10 -174q0 -90 27 -158l61 -37h-174l-96 -6l-15 -6q-10 14 -10 20z" />
<glyph unicode="n" horiz-adv-x="1593" d="M18 29l7 34h16q61 59 78 136q9 37 9 99q0 21 -1 44q-2 41 -2 73q0 49 4 79v313l8 53v633l-14 63l297 -256l43 -43q82 -82 239.5 -261t239.5 -259l41 -43q47 -68 143 -164q78 -74 156 -149l76 -76l-29 1112l14 6l-47 99v6l-36 35l-41 14l8 14q51 -8 284 -8h64v-33h-35 l-43 -28l-41 -119l-6 -55l6 -113q-3 -42 -3 -95q0 -93 9 -222l-20 -340v-64h14l-6 -49l-8 -33v-203l8 -110l-8 -62v-57l-21 6h-8l-178 197q-129 137 -412 450l-96 84l-479 498h-8l-7 -6v-47l7 -84q-4 -25 -4 -62q0 -25 2 -56q1 -24 1 -44q0 -46 -6 -76l-6 -428l6 -258 l15 -49l6 -6l8 -15q20 -27 96 -55l-63 -35l-236 6z" />
<glyph unicode="o" horiz-adv-x="1767" d="M27 844q0 211 145 426q154 229 369 305l41 14l43 15q135 45 276 45h12q35 0 72 -4q211 -14 428 -175q234 -172 293 -383q35 -123 35 -237q0 -344 -297 -625l-64 -49l-92 -49l-35 -29q-197 -84 -430 -84l-22 6q-250 0 -465 185l-57 49l-99 119l-28 43l-23 37l-55 118 l-29 93q-2 41 -14 120q-4 29 -4 60zM195 877l6 -93l37 -225l20 -63l27 -60l8 -35l35 -63l84 -92q14 -12 65 -47l64 -43l84 -43l133 -43h51l14 -7l99 7h49q61 14 123 28q80 18 116 43l72 49q297 204 297 650q0 139 -43 262q-74 215 -211 346q-199 154 -430 154 q-109 0 -242 -33l-43 -23l-43 -14q-188 -98 -295 -352q10 -6 2 -15q-8 -6 -24 -6zM796 959q34 36 86 36t93 -30q45 -32 45 -63v-3q-4 -78 -47 -125q-29 -32 -70 -32q-8 0 -18 1q-53 6 -91 43q-36 35 -36 81q-1 52 38 92z" />
<glyph unicode="p" horiz-adv-x="1198" d="M43 1604l8 12q104 -12 309 -12q43 0 127 4t125 4q279 0 455 -178q25 -43 49.5 -88t28.5 -82q10 -49 10 -97q0 -80 -31 -178l-71 -127q-181 -155 -384 -155h-3q-115 0 -263 49l-8 35q20 -4 113 -27q66 -16 106 -16l113 22q123 23 213 148q82 115 82 233q0 27 -4 49 l-35 156q-129 203 -408 203q-35 0 -99 -3.5t-95 -3.5l-12 -6l-29 -225l-8 -92v-897l28 -199l15 -29q4 -16 24.5 -23t24.5 -11q8 -14 -8 -27q-42 8 -119.5 8t-190.5 -8l-8 6l-20 -6v27l49 6l29 16q33 53 39 129q6 106 10 125v467l-15 436q0 170 -55 277q-12 41 -92 78z" />
<glyph unicode="q" horiz-adv-x="1757" d="M41 829q0 158 70 322l6 49q129 219 334 336q190 106 407 106q160 0 305 -61q168 -49 326 -195q164 -152 203 -307q30 -109 30 -214v-7q0 -381 -354 -676l-29 -12l-34 -29q-33 -23 -99 -51l-16 -6l-12 -8q217 -18 512 -148q418 -182 493 -207q182 -59 371 -59q45 0 86 4 l14 -12l-84 -23h-6q-68 -10 -137 -10q-238 0 -576 119q-289 111 -579 219q-338 119 -576 119q-55 0 -106 -6q-195 78 -318 217l-112 127q-119 209 -119 413zM217 756v-12q0 -203 133 -420q205 -240 494 -240h86q47 4 99 8t91 21l78 28l35 29l37 12l84 78q66 59 102 131 q6 12 60 137l43 277q0 553 -396 735q-170 55 -309 55q-258 0 -463 -190q-113 -141 -149 -322q-23 -109 -25 -327zM796 959q35 36 86.5 36t92.5 -30q45 -32 45 -63v-3q-4 -78 -47 -125q-29 -32 -70 -32q-9 0 -18 1q-53 6 -91 43q-36 35 -36 81q0 52 38 92z" />
<glyph unicode="r" horiz-adv-x="1449" d="M27 1595q76 -14 172 -14q61 0 184 8t184 8q289 0 475 -178q74 -119 74 -231q0 -139 -117 -291l-75 -72q-53 -25 -164 -77l35 -13l86 -57l118 -170l21 -35q84 -141 106 -176q68 -102 144 -170q39 -37 88 -37q8 0 65 8l-14 -49l-76 -29h-14q-145 0 -262 142l-92 112 l-191 318l-98 106q-55 18 -170 18.5t-170 18.5l-14 -8v-297q2 -80 6 -162q4 -88 22 -155l51 -58v-35q-56 17 -143 17h-10q-143 -2 -152 -2h-20l6 35h29l49 49q39 512 39 698q0 393 -88 701l-50 43zM315 1016q-1 -14 -1 -31q0 -80 16 -215l71 -8l21 -6l14 6q43 -3 81 -3 q131 0 208 32q102 31 173 139q67 103 67 202v11q-6 176 -70 270q-137 147 -356 148q-20 0 -209 -15l-15 -403v-127z" />
<glyph unicode="s" horiz-adv-x="964" d="M37 1122q-2 22 -2 44q0 90 39 175q51 115 153 177q111 69 252 69h4q63 0 172 -16q121 -16 172 -19l35 -20l-6 -148q-66 84 -190 127q-147 27 -205 27q-53 0 -99 -12l-77 -37l-86 -76q-35 -76 -35 -143q0 -84 57 -168q84 -74 344 -211q214 -113 320 -248q51 -90 51 -184 q0 -125 -102 -303l-84 -80l-70 -33q-162 -51 -277 -51l-20 8q-162 0 -311 98l-21 228l6 34q31 -70 62 -139q41 -80 114 -123q109 -43 209 -43q94 0 187 37l45 27q109 70 127 270q-14 111 -64 176q-100 127 -325 232q-233 106 -334 227z" />
<glyph unicode="t" horiz-adv-x="1171" d="M-47 1401q0 18 14.5 69.5t14.5 73.5l22 37h127l756 -14l211 6h106l8 -29l21 -112l-29 -35l-63 69q-90 25 -226 27q-113 2 -227 2l-14 -84v-608l14 -84v-92q0 -283 29 -508l20 -35l58 -43l-361 -23l-14 9l-6 28l41 6h8q74 143 74 365q0 29 -2 121q-1 38 -1 68.5t1 54.5 q6 53 6 239v113l-15 403l-8 70l-196 14h-50l-239 -43l-8 -6l-64 -84q-8 8 -8 25z" />
<glyph unicode="u" horiz-adv-x="1703" d="M43 1561q36 8 100 8q19 0 41 -1t42 -1q64 0 100 8q1 -27 1 -60q0 -92 -8 -237q0 -606 35 -848l15 -41q51 -152 211 -239q122 -68 240 -68q18 0 36 2l135 14l21 15l176 63l35 23l22 6l105 84q47 72 47 168q0 31 -4 80l8 170v118l-23 326l-6 211l-14 65l-58 91l-77 43l8 14 h63l35 29l14 -35h183l16 -8l-8 -76v-228l8 -120l-8 -72v-41l8 -453h6l15 -12l-29 -72v-28l29 -326q18 4 20 -6q0 -6 -6 -23l6 -12l49 -29l29 -20l-14 -29q-20 0 -113 9q-27 2 -51 2q-35 0 -62 -5l-43 23l23 133v78l-72 -64l-121 -86l-34 -28l-58 -13l-41 -14 q-158 -49 -264 -49q-47 0 -90 8l-14 12l-13 -12l-164 35q-180 76 -276 219l-6 12q-80 174 -80 455v113q2 76 2 112q0 88 -6 154l-8 92q-2 82 -4 162q-6 90 -46 156l-26 34z" />
<glyph unicode="v" horiz-adv-x="1785" d="M0 1589q199 0 393 21l-22 -64q-1 -12 -1 -24q0 -70 38 -160l90 -184l26 -43l406 -832q59 133 211 420q145 279 207 424q100 233 120 422l-47 41v14h230l92 14l20 -28l-63 -13q-133 -174 -246 -409q-94 -209 -188 -416l-160 -330l-203 -405l-14 6l-721 1387 q-29 43 -133 133q-14 10 -35 26z" />
<glyph unicode="w" horiz-adv-x="2308" d="M-35 1610q30 22 110 22q25 0 54 -2q66 -6 112 -6q54 0 81 8h57q0 -14 -17 -28l-12 -7l-8 -139q53 -106 154 -338l14 -41l350 -755l133 223l6 20l121 260l-280 603l-29 34l-104 133l-78 21v14l266 -14l70 14l55 -8l-21 -27h-6l-28 -34l63 -156l105 -266l55 -131l22 -21 q18 61 136 289q92 174 94 285l-41 41l14 28l111 -14l92 14l70 -8l-64 -41q-106 -127 -207 -344q-141 -303 -170 -356q61 -143 125 -289q74 -170 141 -285l48 56q2 4 282 573q168 344 244 575v56l-43 35l8 14l131 -14l92 14l70 -14l-35 -15l-20 -14q-139 -164 -265 -428 q-106 -227 -211 -453l-335 -637l-29 23l-287 629l-315 -646l-27 17l-141 313l-27 35l-92 197l-6 34q-68 102 -164 340q-100 246 -164 351q-109 180 -260 260z" />
<glyph unicode="x" horiz-adv-x="1630" d="M18 80h50q123 68 245 213q72 82 207 280q129 190 205 275l-217 307q-256 367 -467 449q150 0 461 14l-8 -49q-2 -20 -2 -39q0 -78 51 -150l55 -77l49 -70l148 -203l28 -49q145 186 185 238q98 135 159 245q17 41 17 87q0 22 -4 46l284 13l-41 -27l-55 -41 q-117 -111 -254 -293q-184 -244 -235 -303l-7 -20l76 -133l51 -56l181 -254l92 -110h12q88 -137 223 -252l105 -64l-35 -14h-8q-66 8 -170.5 8t-247.5 -8q-8 18 -8 23q0 4 9 5t15 9l13 6l28 49q-6 61 -98 203l-29 41l-295 414q-72 -88 -272 -365q-61 -88 -160 -258l-8 -84 l23 -43q-51 10 -111 12q-41 0 -106 -2q-80 -2 -105 -2l-22 6z" />
<glyph unicode="y" horiz-adv-x="1368" d="M-217 1608q90 0 280 -15l105 21l14 -84l55 -105l29 -34l133 -191l49 -61l105 -148l35 -26l69 -99q389 434 441 672l-33 49v6q41 -8 86 -8q43 0 115 10q84 10 112 13l43 -6l-8 -15l-63 -22l-62 -47q-47 -35 -182 -211l-406 -531v-518l13 -113l14 -26l63 -80 q-90 12 -170 12q-82 0 -165 -12h-21l14 29h7l55 34q33 102 33 238q0 45 -5.5 133t-5.5 133q0 57 7 105l-7 65l-28 41l-113 139l-229 301q-211 272 -379 351z" />
<glyph unicode="z" horiz-adv-x="1355" d="M25 31l20 49q426 500 1020 1433l-125 21h-154l-251 -14q-104 -2 -207 -7q-117 -12 -193 -83l-35 -9l78 189l817 -21h336q-588 -786 -1034 -1468l223 -29h92l174 8q23 -1 47 -1q131 0 310 36l35 6l6 15l78 96h8l-58 -229h-118l-50 8h-83l-70 -8l-6 14l-15 -6h-845z" />
<glyph unicode="~" horiz-adv-x="1069" d="M23 1282q190 240 325 156l227 -131q303 -195 412 94l41 -41q-88 -434 -528 -131q-317 217 -455 0q1 0 -22 53z" />
<glyph unicode="&#xad;" d="M66 571l28 47q1 1 21 93l-15 123l9 49q14 -8 16 -13l35 -55l33 -12q4 -14 6 -29l360 2l264 19l117 14l18 41l11 24l45 11l12 -23l-12 -49l-8 -92l-17 -119l-6 -20h-12l-35 65q-63 37 -94 37q-109 0 -148 10l-121 -2l-333 -10l-68 -64l-39 -34l-10 -25l-45 -10z" />
<glyph unicode="&#x2000;" horiz-adv-x="857" />
<glyph unicode="&#x2001;" horiz-adv-x="1714" />
<glyph unicode="&#x2002;" horiz-adv-x="857" />
<glyph unicode="&#x2003;" horiz-adv-x="1714" />
<glyph unicode="&#x2004;" horiz-adv-x="571" />
<glyph unicode="&#x2005;" horiz-adv-x="428" />
<glyph unicode="&#x2006;" horiz-adv-x="285" />
<glyph unicode="&#x2007;" horiz-adv-x="285" />
<glyph unicode="&#x2008;" horiz-adv-x="214" />
<glyph unicode="&#x2009;" horiz-adv-x="342" />
<glyph unicode="&#x200a;" horiz-adv-x="95" />
<glyph unicode="&#x2010;" d="M66 571l28 47q1 1 21 93l-15 123l9 49q14 -8 16 -13l35 -55l33 -12q4 -14 6 -29l360 2l264 19l117 14l18 41l11 24l45 11l12 -23l-12 -49l-8 -92l-17 -119l-6 -20h-12l-35 65q-63 37 -94 37q-109 0 -148 10l-121 -2l-333 -10l-68 -64l-39 -34l-10 -25l-45 -10z" />
<glyph unicode="&#x2011;" d="M66 571l28 47q1 1 21 93l-15 123l9 49q14 -8 16 -13l35 -55l33 -12q4 -14 6 -29l360 2l264 19l117 14l18 41l11 24l45 11l12 -23l-12 -49l-8 -92l-17 -119l-6 -20h-12l-35 65q-63 37 -94 37q-109 0 -148 10l-121 -2l-333 -10l-68 -64l-39 -34l-10 -25l-45 -10z" />
<glyph unicode="&#x2012;" d="M66 571l28 47q1 1 21 93l-15 123l9 49q14 -8 16 -13l35 -55l33 -12q4 -14 6 -29l360 2l264 19l117 14l18 41l11 24l45 11l12 -23l-12 -49l-8 -92l-17 -119l-6 -20h-12l-35 65q-63 37 -94 37q-109 0 -148 10l-121 -2l-333 -10l-68 -64l-39 -34l-10 -25l-45 -10z" />
<glyph unicode="&#x2013;" horiz-adv-x="1149" d="M66 571l30 47q1 1 22 93l-16 123l10 49q15 -8 17 -13l37 -55l35 -12q5 -14 7 -29l384 2l281 19l125 14l19 41l12 24l48 11l13 -23l-13 -49l-8 -92l-18 -119l-7 -20h-13l-37 65q-67 37 -100 37q-117 0 -158 10l-129 -2l-355 -10l-73 -64l-42 -34l-10 -25l-48 -10z" />
<glyph unicode="&#x2014;" horiz-adv-x="2173" d="M66 571l60 47q2 1 45 93l-32 123l19 49q30 -8 34 -13l75 -55l70 -12q8 -14 13 -29l768 2l563 19l250 14l38 41l23 24l96 11l26 -23l-26 -49l-17 -92l-36 -119l-13 -20h-25l-75 65q-134 37 -201 37q-232 0 -315 10l-258 -2l-711 -10l-145 -64l-83 -34l-21 -25l-96 -10z " />
<glyph unicode="&#x2018;" horiz-adv-x="331" d="M59 1501q63 49 91 129q35 -72 122 -135q-45 -41 -104 -100q-12 -16 -12 -45q0 -39 28 -113q-18 16 -63 125q-50 121 -62 139z" />
<glyph unicode="&#x2019;" horiz-adv-x="325" d="M57 1491q88 63 123 135q24 -80 90 -129q-14 -18 -63 -139q-43 -109 -62 -125q27 74 27 113q0 29 -10 45q-61 59 -105 100z" />
<glyph unicode="&#x201c;" horiz-adv-x="591" d="M53 1499q63 49 90 129q35 -72 123 -135q-45 -41 -104 -100q-12 -16 -12 -45q0 -39 28 -113q-18 16 -63 125q-50 121 -62 139zM336 1493q63 49 90 129q35 -72 123 -135q-45 -41 -105 -101q-12 -16 -12 -45q0 -39 29 -112q-18 16 -64 125q-49 121 -61 139z" />
<glyph unicode="&#x201d;" horiz-adv-x="591" d="M49 1499q88 63 123 135q24 -80 90 -129q-14 -18 -63 -139q-43 -109 -62 -125q27 74 27 113q0 29 -10 45q-61 59 -105 100zM332 1505q88 63 123 135q24 -80 90 -129q-14 -18 -64 -139q-43 -109 -61 -125q27 74 26 113q0 29 -10 45q-61 59 -104 100z" />
<glyph unicode="&#x202f;" horiz-adv-x="342" />
<glyph unicode="&#x205f;" horiz-adv-x="428" />
<glyph unicode="&#x25fc;" horiz-adv-x="1617" d="M0 0v1618h1618v-1618h-1618z" />
</font>
</defs>
</svg>
